<svg xmlns="http://www.w3.org/2000/svg" width="128" height="128" viewBox="0 0 128 128">
  <rect x="4" y="4" width="120" height="120" rx="28" fill="#c6e5f5"/>
  <path d="m43 76-21-42q-2-5 3-3l27 30" fill="#985d3b"/>
  <path d="M37 67c8-10 17-12 26-13 3-17 16-23 27-16 7 4 10 12 7 22 6 8 5 20-4 29-10 11-33 13-48 4-11-7-16-17-8-26Z" fill="#c47b43"/>
  <path d="m96 48 15 5-15 3Z" fill="#493a30"/>
  <path d="M96 59c5 8 4 19-4 27-9 10-27 13-42 6 18 1 27-9 29-22 1-7 8-11 17-11Z" fill="#efcf9b"/>
  <path d="M39 66c12-10 26-10 38-3-3 15-22 21-38 3Z" fill="#925637"/>
  <path d="M74 45q9-6 18-1" fill="none" stroke="#efcf9b" stroke-width="3" stroke-linecap="round"/>
  <circle cx="86" cy="49" r="3" fill="#191918"/>
  <path d="m58 98-2 9m23-10 2 10m-30 0h11m14 0h11" fill="none" stroke="#493a30" stroke-width="3" stroke-linecap="round"/>
</svg>
